<?xml version="1.0" standalone="no"?>
<svg xmlns="http://www.w3.org/2000/svg" viewBox="0 0 1440 320">
    <path fill="#000b76" fill-opacity="1" d="M0,128L20,138.7C40,149,80,171,120,176C160,181,200,171,240,181.3C280,192,320,224,360,240C400,256,440,256,480,218.7C520,181,560,107,600,64C640,21,680,11,720,48C760,85,800,171,840,218.7C880,267,920,277,960,240C1000,203,1040,117,1080,112C1120,107,1160,181,1200,192C1240,203,1280,149,1320,133.3C1360,117,1400,139,1420,149.3L1440,160L1440,0L1420,0C1400,0,1360,0,1320,0C1280,0,1240,0,1200,0C1160,0,1120,0,1080,0C1040,0,1000,0,960,0C920,0,880,0,840,0C800,0,760,0,720,0C680,0,640,0,600,0C560,0,520,0,480,0C440,0,400,0,360,0C320,0,280,0,240,0C200,0,160,0,120,0C80,0,40,0,20,0L0,0Z"></path>
</svg>

