<?xml version="1.0" standalone="no"?>
<svg xmlns="http://www.w3.org/2000/svg" viewBox="0 0 1440 320">
    <path fill="#0d22f4" fill-opacity="1" d="M0,96L20,80C40,64,80,32,120,32C160,32,200,64,240,90.7C280,117,320,139,360,144C400,149,440,139,480,160C520,181,560,235,600,234.7C640,235,680,181,720,181.3C760,181,800,235,840,266.7C880,299,920,309,960,293.3C1000,277,1040,235,1080,181.3C1120,128,1160,64,1200,69.3C1240,75,1280,149,1320,192C1360,235,1400,245,1420,250.7L1440,256L1440,320L1420,320C1400,320,1360,320,1320,320C1280,320,1240,320,1200,320C1160,320,1120,320,1080,320C1040,320,1000,320,960,320C920,320,880,320,840,320C800,320,760,320,720,320C680,320,640,320,600,320C560,320,520,320,480,320C440,320,400,320,360,320C320,320,280,320,240,320C200,320,160,320,120,320C80,320,40,320,20,320L0,320Z"></path>
</svg>

