<?xml version="1.0" standalone="no"?>
<svg id="lower-curve" xmlns="http://www.w3.org/2000/svg" viewBox="0 0 1440 320">
    <path fill="#0099ff" fill-opacity="1" d="M0,160L24,154.7C48,149,96,139,144,138.7C192,139,240,149,288,170.7C336,192,384,224,432,218.7C480,213,528,171,576,181.3C624,192,672,256,720,266.7C768,277,816,235,864,186.7C912,139,960,85,1008,96C1056,107,1104,181,1152,213.3C1200,245,1248,235,1296,197.3C1344,160,1392,96,1416,64L1440,32L1440,320L1416,320C1392,320,1344,320,1296,320C1248,320,1200,320,1152,320C1104,320,1056,320,1008,320C960,320,912,320,864,320C816,320,768,320,720,320C672,320,624,320,576,320C528,320,480,320,432,320C384,320,336,320,288,320C240,320,192,320,144,320C96,320,48,320,24,320L0,320Z"></path>
</svg>