<?xml version="1.0" standalone="no"?>
<svg xmlns="http://www.w3.org/2000/svg" viewBox="0 0 1440 320">
    <path fill="#00e" fill-opacity="1" d="M0,128L20,160C40,192,80,256,120,261.3C160,267,200,213,240,170.7C280,128,320,96,360,90.7C400,85,440,107,480,122.7C520,139,560,149,600,133.3C640,117,680,75,720,69.3C760,64,800,96,840,101.3C880,107,920,85,960,90.7C1000,96,1040,128,1080,160C1120,192,1160,224,1200,229.3C1240,235,1280,213,1320,213.3C1360,213,1400,235,1420,245.3L1440,256L1440,0L1420,0C1400,0,1360,0,1320,0C1280,0,1240,0,1200,0C1160,0,1120,0,1080,0C1040,0,1000,0,960,0C920,0,880,0,840,0C800,0,760,0,720,0C680,0,640,0,600,0C560,0,520,0,480,0C440,0,400,0,360,0C320,0,280,0,240,0C200,0,160,0,120,0C80,0,40,0,20,0L0,0Z"></path>
</svg>